<svg width="25" height="25" viewBox="0 0 25 25" fill="none" xmlns="http://www.w3.org/2000/svg">
<path d="M21.4127 0.524049H4.51296C4.05761 0.524236 3.60675 0.61383 3.18618 0.787706C2.76561 0.961583 2.38358 1.21633 2.06193 1.53739C1.74027 1.85844 1.48531 2.2395 1.31162 2.65877C1.13793 3.07805 1.04892 3.52732 1.04967 3.98089L0.875977 21.0601C0.875969 21.9763 1.24039 22.8552 1.88947 23.5044C2.53856 24.1536 3.41943 24.5203 4.33927 24.524H17.2584C17.3768 24.5229 17.4933 24.4937 17.5982 24.4389C17.7031 24.3842 17.7935 24.3054 17.8619 24.2091L24.4867 17.6104L24.5298 17.5674C24.5813 17.5145 24.6206 17.451 24.6448 17.3813C24.6844 17.2962 24.704 17.2032 24.7023 17.1094L24.876 3.98089C24.8767 3.52732 24.7877 3.07805 24.614 2.65877C24.4403 2.2395 24.1854 1.85844 23.8637 1.53739C23.5421 1.21633 23.16 0.961583 22.7395 0.787706C22.3189 0.61383 21.868 0.524236 21.4127 0.524049ZM7.4433 12.1853H6.23618V14.0319C6.23321 14.2208 6.15656 14.4011 6.02245 14.5347C5.88833 14.6683 5.70729 14.7446 5.51765 14.7476C5.32709 14.7476 5.14433 14.6722 5.00958 14.5379C4.87483 14.4037 4.79912 14.2217 4.79912 14.0319V8.92175C4.79912 8.73193 4.87483 8.54989 5.00958 8.41567C5.14433 8.28145 5.32709 8.20605 5.51765 8.20605H7.4433C7.97307 8.20605 8.48114 8.41567 8.85574 8.7888C9.23035 9.16193 9.4408 9.66801 9.4408 10.1957C9.4408 10.7234 9.23035 11.2295 8.85574 11.6026C8.48114 11.9757 7.97307 12.1853 7.4433 12.1853ZM15.1171 12.7579C15.1177 13.0194 15.0664 13.2783 14.9663 13.52C14.8661 13.7616 14.719 13.9812 14.5334 14.1661C14.3478 14.3509 14.1273 14.4975 13.8847 14.5973C13.6421 14.697 13.3821 14.7481 13.1196 14.7476H11.1796C10.9891 14.7476 10.8063 14.6722 10.6716 14.5379C10.5368 14.4037 10.4611 14.2217 10.4611 14.0319V8.90743C10.4611 8.71762 10.5368 8.53558 10.6716 8.40136C10.8063 8.26714 10.9891 8.19173 11.1796 8.19173H13.1196C13.6507 8.19551 14.1588 8.40831 14.533 8.78372C14.9072 9.15913 15.1172 9.66668 15.1171 10.1957V12.7579ZM16.1518 14.0319V8.90743C16.1518 8.71762 16.2275 8.53558 16.3623 8.40136C16.497 8.26714 16.6798 8.19173 16.8703 8.19173H20.1037C20.2943 8.19173 20.477 8.26714 20.6118 8.40136C20.7465 8.53558 20.8222 8.71762 20.8222 8.90743C20.8222 9.09725 20.7465 9.27929 20.6118 9.41351C20.477 9.54773 20.2943 9.62314 20.1037 9.62314H17.5889V10.7539H19.2559C19.4455 10.7569 19.6265 10.8332 19.7606 10.9668C19.8948 11.1004 19.9714 11.2808 19.9744 11.4696C19.9744 11.6595 19.8987 11.8415 19.7639 11.9757C19.6292 12.1099 19.4464 12.1853 19.2559 12.1853H17.5889V14.0319C17.5889 14.2217 17.5132 14.4037 17.3784 14.5379C17.2437 14.6722 17.0609 14.7476 16.8703 14.7476C16.6798 14.7476 16.497 14.6722 16.3623 14.5379C16.2275 14.4037 16.1518 14.2217 16.1518 14.0319ZM17.9769 22.0763V19.8434C17.9795 19.3064 18.1958 18.7924 18.5784 18.4141C18.9609 18.0358 19.4784 17.8239 20.0175 17.8251H22.2449L17.9769 22.0763ZM13.6801 10.1957V12.7579C13.6801 12.906 13.621 13.048 13.5159 13.1526C13.4108 13.2573 13.2683 13.3162 13.1196 13.3162H11.8982V9.62314H13.1196C13.2684 9.62683 13.4098 9.6878 13.5144 9.79324C13.6189 9.89868 13.6783 10.0404 13.6801 10.1885V10.1957ZM8.01812 10.1957C8.01756 10.2701 8.00221 10.3436 7.97294 10.412C7.94368 10.4804 7.90109 10.5424 7.84763 10.5943C7.79418 10.6462 7.73092 10.687 7.66152 10.7144C7.59211 10.7418 7.51794 10.7553 7.4433 10.7539H6.23618V9.63745H7.4433C7.51795 9.63373 7.59257 9.64528 7.66258 9.67138C7.73258 9.69748 7.79647 9.73758 7.85033 9.78921C7.90418 9.84084 7.94685 9.9029 7.9757 9.97158C8.00456 10.0403 8.019 10.1141 8.01812 10.1885V10.1957Z" fill="white"/>
</svg>
