<svg width="25" height="25" fill="none" xmlns="http://www.w3.org/2000/svg"><path d="M21.413.524h-16.9a3.477 3.477 0 00-2.451 1.013A3.45 3.45 0 001.05 3.981L.876 21.06c0 .915.364 1.794 1.013 2.443.65.65 1.53 1.016 2.45 1.02h12.92a.75.75 0 00.603-.315l6.625-6.599.043-.043a.504.504 0 00.115-.186.618.618 0 00.057-.272l.174-13.128a3.44 3.44 0 00-1.012-2.444A3.465 3.465 0 0021.413.524zM7.443 12.185H6.236v1.847a.726.726 0 01-.718.716.72.72 0 01-.719-.716v-5.11a.714.714 0 01.719-.716h1.925c.53 0 1.038.21 1.413.583a1.986 1.986 0 010 2.814 2.002 2.002 0 01-1.413.582zm7.674.573a1.98 1.98 0 01-1.232 1.84c-.243.099-.503.15-.765.15h-1.94a.72.72 0 01-.719-.716V8.907a.714.714 0 01.719-.715h1.94c.53.004 1.039.216 1.413.592a2 2 0 01.584 1.412v2.562zm1.035 1.274V8.907a.714.714 0 01.718-.715h3.234a.72.72 0 01.718.715.714.714 0 01-.718.716h-2.515v1.13h1.667a.731.731 0 01.718.717.714.714 0 01-.718.715h-1.667v1.847a.714.714 0 01-.719.716.72.72 0 01-.718-.716zm1.825 8.044v-2.233a2.024 2.024 0 01.601-1.429c.383-.378.9-.59 1.44-.589h2.227l-4.268 4.251zm-4.297-11.88v2.562a.557.557 0 01-.56.558h-1.222V9.623h1.222a.576.576 0 01.56.566v.007zm-5.662 0a.56.56 0 01-.575.558H6.236V9.637h1.207a.55.55 0 01.575.551v.008z" fill="#fff"/></svg>