<svg width="24" height="24" fill="none" xmlns="http://www.w3.org/2000/svg"><path d="M20.537 0h-16.9a3.477 3.477 0 00-2.451 1.013A3.45 3.45 0 00.174 3.457L0 20.536c0 .916.364 1.795 1.014 2.444A3.483 3.483 0 003.464 24h12.918a.752.752 0 00.604-.315l6.625-6.599.043-.043a.506.506 0 00.115-.186.617.617 0 00.057-.272L24 3.457a3.44 3.44 0 00-1.012-2.444A3.464 3.464 0 0020.537 0zM6.567 11.661H5.36v1.847a.726.726 0 01-.718.716.72.72 0 01-.719-.716v-5.11a.714.714 0 01.719-.716h1.925c.53 0 1.038.21 1.413.583a1.986 1.986 0 010 2.813 2.001 2.001 0 01-1.413.583zm7.674.573a1.98 1.98 0 01-1.232 1.84 2 2 0 01-.765.15h-1.94a.72.72 0 01-.719-.716V8.383a.714.714 0 01.719-.715h1.94a2.01 2.01 0 011.413.592 2 2 0 01.584 1.412v2.562zm1.035 1.274V8.383a.714.714 0 01.718-.715h3.234a.72.72 0 01.718.715.714.714 0 01-.718.716h-2.515v1.13h1.667a.731.731 0 01.718.717.714.714 0 01-.718.715h-1.667v1.847a.714.714 0 01-.719.716.72.72 0 01-.718-.716zm1.825 8.044V19.32a2.028 2.028 0 012.041-2.018h2.227l-4.269 4.25zm-4.297-11.88v2.562a.557.557 0 01-.56.558h-1.222V9.1h1.222a.576.576 0 01.56.565v.008zm-5.662 0a.56.56 0 01-.575.558H5.36V9.113h1.207a.55.55 0 01.575.551v.008z" fill="#9C1300"/></svg>