<svg width="24" height="24" viewBox="0 0 24 24" fill="none" xmlns="http://www.w3.org/2000/svg">
<path d="M20.5367 6.82546e-07H3.63699C3.18163 0.000188183 2.73077 0.0897819 2.31021 0.263659C1.88964 0.437535 1.5076 0.692284 1.18595 1.01334C0.864296 1.33439 0.609334 1.71545 0.435643 2.13473C0.261952 2.554 0.17294 3.00327 0.173696 3.45684L1.2693e-10 20.536C-7.85327e-06 21.4522 0.364414 22.3312 1.0135 22.9804C1.66258 23.6296 2.54345 23.9962 3.46329 24H16.3824C16.5008 23.9988 16.6173 23.9696 16.7222 23.9149C16.8271 23.8602 16.9175 23.7814 16.9859 23.6851L23.6107 17.0863L23.6539 17.0434C23.7053 16.9904 23.7446 16.9269 23.7688 16.8573C23.8084 16.7721 23.8281 16.6792 23.8263 16.5853L24 3.45684C24.0007 3.00327 23.9117 2.554 23.738 2.13473C23.5644 1.71545 23.3094 1.33439 22.9877 1.01334C22.6661 0.692284 22.2841 0.437535 21.8635 0.263659C21.4429 0.0897819 20.9921 0.000188183 20.5367 6.82546e-07ZM6.56732 11.6613H5.3602V13.5078C5.35724 13.6967 5.28058 13.877 5.14647 14.0106C5.01236 14.1442 4.83131 14.2206 4.64167 14.2235C4.45111 14.2235 4.26835 14.1481 4.1336 14.0139C3.99885 13.8797 3.92315 13.6976 3.92315 13.5078V8.3977C3.92315 8.20789 3.99885 8.02584 4.1336 7.89162C4.26835 7.7574 4.45111 7.682 4.64167 7.682H6.56732C7.09709 7.682 7.60516 7.89162 7.97977 8.26475C8.35437 8.63789 8.56482 9.14396 8.56482 9.67165C8.56482 10.1993 8.35437 10.7054 7.97977 11.0785C7.60516 11.4517 7.09709 11.6613 6.56732 11.6613ZM14.2412 12.2339C14.2417 12.4953 14.1905 12.7543 14.0903 12.9959C13.9901 13.2376 13.843 13.4571 13.6574 13.642C13.4718 13.8269 13.2514 13.9734 13.0088 14.0732C12.7661 14.173 12.5061 14.2241 12.2437 14.2235H10.3037C10.1131 14.2235 9.93033 14.1481 9.79558 14.0139C9.66083 13.8797 9.58513 13.6976 9.58513 13.5078V8.38339C9.58513 8.19357 9.66083 8.01153 9.79558 7.87731C9.93033 7.74309 10.1131 7.66769 10.3037 7.66769H12.2437C12.7748 7.67146 13.2828 7.88426 13.657 8.25967C14.0312 8.63508 14.2412 9.14264 14.2412 9.67165V12.2339ZM15.2758 13.5078V8.38339C15.2758 8.19357 15.3515 8.01153 15.4863 7.87731C15.621 7.74309 15.8038 7.66769 15.9944 7.66769H19.2277C19.4183 7.66769 19.6011 7.74309 19.7358 7.87731C19.8706 8.01153 19.9463 8.19357 19.9463 8.38339C19.9463 8.5732 19.8706 8.75524 19.7358 8.88946C19.6011 9.02368 19.4183 9.09909 19.2277 9.09909H16.7129V10.2299H18.3799C18.5695 10.2328 18.7506 10.3092 18.8847 10.4428C19.0188 10.5764 19.0954 10.7567 19.0984 10.9456C19.0984 11.1354 19.0227 11.3175 18.8879 11.4517C18.7532 11.5859 18.5704 11.6613 18.3799 11.6613H16.7129V13.5078C16.7129 13.6976 16.6372 13.8797 16.5024 14.0139C16.3677 14.1481 16.1849 14.2235 15.9944 14.2235C15.8038 14.2235 15.621 14.1481 15.4863 14.0139C15.3515 13.8797 15.2758 13.6976 15.2758 13.5078ZM17.1009 21.5523V19.3193C17.1036 18.7824 17.3199 18.2684 17.7024 17.89C18.0849 17.5117 18.6024 17.2999 19.1415 17.301H21.3689L17.1009 21.5523ZM12.8041 9.67165V12.2339C12.8041 12.3819 12.7451 12.5239 12.64 12.6286C12.5349 12.7333 12.3923 12.7921 12.2437 12.7921H11.0222V9.09909H12.2437C12.3924 9.10278 12.5339 9.16376 12.6384 9.2692C12.7429 9.37464 12.8023 9.51633 12.8041 9.66449V9.67165ZM7.14214 9.67165C7.14158 9.74601 7.12623 9.81953 7.09697 9.88794C7.0677 9.95635 7.02511 10.0183 6.97166 10.0702C6.9182 10.1221 6.85494 10.163 6.78554 10.1904C6.71614 10.2178 6.64197 10.2312 6.56732 10.2299H5.3602V9.1134H6.56732C6.64197 9.10968 6.7166 9.12123 6.7866 9.14733C6.8566 9.17343 6.9205 9.21353 6.97435 9.26516C7.0282 9.31679 7.07087 9.37885 7.09973 9.44753C7.12858 9.51621 7.14302 9.59005 7.14214 9.66449V9.67165Z" fill="#9C1300"/>
</svg>
